<mxfile host="app.diagrams.net" agent="Mozilla/5.0 (X11; Linux x86_64) AppleWebKit/537.36 (KHTML, like Gecko) Chrome/127.0.0.0 Safari/537.36" version="24.7.12">
  <diagram name="Page-1" id="ozSvyIAcFxp3TrCXTgV7">
    <mxGraphModel dx="1877" dy="579" grid="1" gridSize="10" guides="1" tooltips="1" connect="1" arrows="1" fold="1" page="1" pageScale="1" pageWidth="827" pageHeight="1169" math="0" shadow="0">
      <root>
        <mxCell id="0" />
        <mxCell id="1" parent="0" />
        <mxCell id="yixXTj8mZsjVA6j3Rh0R-7" value="" style="whiteSpace=wrap;html=1;aspect=fixed;" vertex="1" parent="1">
          <mxGeometry x="-80" y="190" width="100" height="100" as="geometry" />
        </mxCell>
        <mxCell id="yixXTj8mZsjVA6j3Rh0R-8" value="Client" style="text;html=1;align=center;verticalAlign=middle;whiteSpace=wrap;rounded=0;" vertex="1" parent="1">
          <mxGeometry x="-60" y="225" width="60" height="30" as="geometry" />
        </mxCell>
        <mxCell id="yixXTj8mZsjVA6j3Rh0R-9" value="" style="rounded=1;whiteSpace=wrap;html=1;" vertex="1" parent="1">
          <mxGeometry x="496" y="240" width="210" height="90" as="geometry" />
        </mxCell>
        <mxCell id="yixXTj8mZsjVA6j3Rh0R-10" value="Aynchronous Image Processing" style="text;html=1;align=center;verticalAlign=middle;whiteSpace=wrap;rounded=0;" vertex="1" parent="1">
          <mxGeometry x="564" y="270" width="60" height="30" as="geometry" />
        </mxCell>
        <mxCell id="yixXTj8mZsjVA6j3Rh0R-12" value="" style="rounded=1;whiteSpace=wrap;html=1;arcSize=14;" vertex="1" parent="1">
          <mxGeometry x="120" y="80" width="140" height="80" as="geometry" />
        </mxCell>
        <mxCell id="yixXTj8mZsjVA6j3Rh0R-13" value="CSV upload" style="text;html=1;align=center;verticalAlign=middle;whiteSpace=wrap;rounded=0;" vertex="1" parent="1">
          <mxGeometry x="160" y="105" width="60" height="30" as="geometry" />
        </mxCell>
        <mxCell id="yixXTj8mZsjVA6j3Rh0R-14" value="" style="rounded=1;whiteSpace=wrap;html=1;" vertex="1" parent="1">
          <mxGeometry x="339" y="80" width="150" height="80" as="geometry" />
        </mxCell>
        <mxCell id="yixXTj8mZsjVA6j3Rh0R-15" value="Process CSV" style="text;html=1;align=center;verticalAlign=middle;whiteSpace=wrap;rounded=0;" vertex="1" parent="1">
          <mxGeometry x="384" y="105" width="60" height="30" as="geometry" />
        </mxCell>
        <mxCell id="yixXTj8mZsjVA6j3Rh0R-17" value="" style="shape=cylinder3;whiteSpace=wrap;html=1;boundedLbl=1;backgroundOutline=1;size=15;" vertex="1" parent="1">
          <mxGeometry x="564" y="60" width="90" height="120" as="geometry" />
        </mxCell>
        <mxCell id="yixXTj8mZsjVA6j3Rh0R-18" value="Write DB" style="text;html=1;align=center;verticalAlign=middle;whiteSpace=wrap;rounded=0;" vertex="1" parent="1">
          <mxGeometry x="571" y="105" width="60" height="30" as="geometry" />
        </mxCell>
        <mxCell id="yixXTj8mZsjVA6j3Rh0R-31" value="" style="endArrow=classic;html=1;rounded=0;exitX=0.5;exitY=0;exitDx=0;exitDy=0;entryX=0;entryY=0.5;entryDx=0;entryDy=0;" edge="1" parent="1" source="yixXTj8mZsjVA6j3Rh0R-7" target="yixXTj8mZsjVA6j3Rh0R-12">
          <mxGeometry width="50" height="50" relative="1" as="geometry">
            <mxPoint x="390" y="330" as="sourcePoint" />
            <mxPoint x="-30" y="120" as="targetPoint" />
            <Array as="points">
              <mxPoint x="-30" y="120" />
            </Array>
          </mxGeometry>
        </mxCell>
        <mxCell id="yixXTj8mZsjVA6j3Rh0R-32" value="" style="endArrow=classic;html=1;rounded=0;exitX=1;exitY=0.5;exitDx=0;exitDy=0;entryX=0;entryY=0.5;entryDx=0;entryDy=0;" edge="1" parent="1" source="yixXTj8mZsjVA6j3Rh0R-12" target="yixXTj8mZsjVA6j3Rh0R-14">
          <mxGeometry width="50" height="50" relative="1" as="geometry">
            <mxPoint x="390" y="330" as="sourcePoint" />
            <mxPoint x="440" y="280" as="targetPoint" />
          </mxGeometry>
        </mxCell>
        <mxCell id="yixXTj8mZsjVA6j3Rh0R-33" value="" style="endArrow=classic;html=1;rounded=0;entryX=0;entryY=0.5;entryDx=0;entryDy=0;entryPerimeter=0;" edge="1" parent="1" target="yixXTj8mZsjVA6j3Rh0R-17">
          <mxGeometry width="50" height="50" relative="1" as="geometry">
            <mxPoint x="490" y="120" as="sourcePoint" />
            <mxPoint x="440" y="280" as="targetPoint" />
          </mxGeometry>
        </mxCell>
        <mxCell id="yixXTj8mZsjVA6j3Rh0R-36" value="" style="endArrow=classic;startArrow=classic;html=1;rounded=0;entryX=0.5;entryY=0;entryDx=0;entryDy=0;exitX=0.433;exitY=1;exitDx=0;exitDy=0;exitPerimeter=0;" edge="1" parent="1" source="yixXTj8mZsjVA6j3Rh0R-17" target="yixXTj8mZsjVA6j3Rh0R-9">
          <mxGeometry width="50" height="50" relative="1" as="geometry">
            <mxPoint x="390" y="330" as="sourcePoint" />
            <mxPoint x="440" y="280" as="targetPoint" />
            <Array as="points" />
          </mxGeometry>
        </mxCell>
        <mxCell id="yixXTj8mZsjVA6j3Rh0R-37" value="" style="ellipse;whiteSpace=wrap;html=1;aspect=fixed;" vertex="1" parent="1">
          <mxGeometry x="528.5" y="410" width="145" height="145" as="geometry" />
        </mxCell>
        <mxCell id="yixXTj8mZsjVA6j3Rh0R-39" value="Webhook Notification" style="text;html=1;align=center;verticalAlign=middle;whiteSpace=wrap;rounded=0;" vertex="1" parent="1">
          <mxGeometry x="571" y="467.5" width="60" height="30" as="geometry" />
        </mxCell>
        <mxCell id="yixXTj8mZsjVA6j3Rh0R-40" value="" style="endArrow=classic;html=1;rounded=0;entryX=0.5;entryY=0;entryDx=0;entryDy=0;exitX=0.5;exitY=1;exitDx=0;exitDy=0;" edge="1" parent="1" source="yixXTj8mZsjVA6j3Rh0R-9" target="yixXTj8mZsjVA6j3Rh0R-37">
          <mxGeometry width="50" height="50" relative="1" as="geometry">
            <mxPoint x="390" y="330" as="sourcePoint" />
            <mxPoint x="440" y="280" as="targetPoint" />
          </mxGeometry>
        </mxCell>
      </root>
    </mxGraphModel>
  </diagram>
</mxfile>
